<svg width="676" height="905" viewBox="0 0 676 905" fill="none" xmlns="http://www.w3.org/2000/svg">
<mask id="mask0_6231_2630" style="mask-type:alpha" maskUnits="userSpaceOnUse" x="0" y="0" width="676" height="905">
<rect width="676" height="905" fill="#FFF4F3"/>
</mask>
<g mask="url(#mask0_6231_2630)">
<path d="M-143.663 1010.64C-146.117 998.274 -142.799 962.631 -109.9 919.017C-68.7773 864.501 -17.3293 875.074 32.7545 865.518C82.8384 855.962 245.795 839.368 312.071 751.507C378.347 663.645 325.753 560.857 376.535 484.561C427.318 408.265 535.637 400.284 588.737 329.889C641.838 259.494 537.856 82.2337 615.311 -20.4477C677.276 -102.593 734.68 -117.533 755.637 -114.735" stroke="#EAD1D0" stroke-width="4" stroke-linecap="round" stroke-dasharray="8 8"/>
<path d="M-26.0642 1103.24C-31.0036 1091.63 -35.07 1056.07 -11.8202 1006.63C17.242 944.838 69.7648 944.629 116.822 925C163.88 905.371 319.964 855.694 366.803 756.103C413.641 656.512 341.075 566.703 375.122 481.61C409.169 396.518 513.546 366.481 551.073 286.688C588.6 206.896 450.459 54.7423 505.197 -61.647C548.988 -154.758 602.106 -181.16 623.191 -182.721" stroke="#EAD1D0" stroke-width="4" stroke-linecap="round" stroke-dasharray="8 8"/>
</g>
</svg>
