<svg width="49" height="39" viewBox="0 0 49 39" fill="none" xmlns="http://www.w3.org/2000/svg">
<g clip-path="url(#clip0_6231_3237)">
<path d="M29.3486 24.16C26.7564 18.6913 23.5789 13.5592 19.9276 8.76365C19.3702 8.06254 18.3946 9.04409 18.9521 9.7452C22.5477 14.4286 25.6415 19.5046 28.1779 24.8611C28.5403 25.6744 29.7388 24.9732 29.3486 24.16Z" fill="white"/>
<path d="M19.7052 37.0038C13.2945 35.8259 6.96739 34.0872 0.835419 31.8436C-0.000758944 31.5632 -0.363103 32.9093 0.473075 33.2178C6.60504 35.4614 12.9321 37.1721 19.3428 38.378C20.2347 38.5182 20.5971 37.1721 19.7052 37.0038Z" fill="white"/>
<path d="M45.3197 19.9815C46.5461 13.7276 47.7725 7.50176 48.9988 1.24788C49.1661 0.378512 47.8282 -0.0141079 47.661 0.883309C46.4346 7.13718 45.2082 13.363 43.9818 19.6169C43.7867 20.4863 45.1246 20.8789 45.3197 19.9815Z" fill="white"/>
</g>
<defs>
<clipPath id="clip0_6231_3237">
<rect x="-0.000488281" y="38.3784" width="38" height="49" rx="2" transform="rotate(-90 -0.000488281 38.3784)" fill="white"/>
</clipPath>
</defs>
</svg>
