<svg width="252" height="296" viewBox="0 0 252 296" fill="none" xmlns="http://www.w3.org/2000/svg">
<g clip-path="url(#clip0_8964_315)">
<path d="M37.4877 111.577C32.3946 108.308 26.9829 105.635 21.3471 103.497C20.5031 103.197 20.1947 104.546 21.0387 104.846C26.5678 106.918 31.8789 109.588 36.8654 112.791C37.6032 113.29 38.2492 112.061 37.4877 111.577Z" fill="white"/>
<path d="M36.1003 127.578C30.0373 129.971 23.7485 131.843 17.3581 133.184C16.5002 133.388 16.905 134.722 17.7778 134.542C24.1681 133.201 30.4421 131.305 36.5199 128.936C37.351 128.583 36.9462 127.249 36.1003 127.578Z" fill="white"/>
<path d="M48.8288 99.5807C46.5604 93.6251 44.3068 87.6933 42.0384 81.7377C41.7203 80.9115 40.3773 81.2863 40.7102 82.1362C42.9786 88.0919 45.2322 94.0237 47.5006 99.9793C47.795 100.82 49.138 100.445 48.8288 99.5807Z" fill="white"/>
</g>
<g clip-path="url(#clip1_8964_315)">
<path d="M392.503 62.2242C374.933 40.7653 351.789 24.2467 326.253 13.6385C300.231 2.81812 271.332 -2.03136 243.221 0.817705C228.62 2.30286 213.837 6.09151 201.568 14.3962C189.209 22.7616 180.121 35.2187 173.184 48.282C166.096 61.5877 160.825 76.318 159.28 91.3817C157.856 105.112 159.886 119.812 168.155 131.208C180.969 148.848 211.928 155.122 225.621 135.118C229.407 129.571 231.285 122.964 232.103 116.356C232.982 109.204 232.739 101.717 230.952 94.7157C227.529 81.2584 217.745 71.4382 205.385 65.6795C179.576 53.6164 147.89 57.0716 122.414 68.1951C95.8773 79.7732 74.5512 100.717 60.4046 125.813C46.8335 149.818 39.5633 177.339 39.7147 204.95C39.8662 231.623 47.0455 258.507 62.0707 280.693C65.7058 286.058 69.8256 291.15 74.2786 295.848C74.945 296.545 76.0356 295.484 75.3388 294.787C57.3147 275.813 46.47 251.172 42.7137 225.379C38.9271 199.373 42.2593 172.55 51.6197 148.06C61.4648 122.267 78.0349 98.6256 100.573 82.4102C123.565 65.831 152.797 57.1019 181.121 60.5875C194.207 62.1939 207.687 66.5584 217.654 75.4997C228.62 85.3502 232.012 99.8077 230.831 114.083C229.771 126.904 224.045 140.18 210.989 144.544C200.387 148.09 188.239 145.423 179.061 139.422C154.645 123.509 158.432 89.1085 167.156 65.4976C172.366 51.4038 179.909 37.5525 190.118 26.429C200.114 15.548 212.928 8.63749 227.196 5.12161C240.888 1.72698 255.277 1.09049 269.303 1.96946C282.874 2.81812 296.324 5.27316 309.319 9.24367C334.947 17.0635 358.938 30.6723 378.326 49.2216C382.991 53.677 387.353 58.4053 391.442 63.4063C392.048 64.0428 393.109 62.982 392.503 62.2242Z" fill="white"/>
</g>
<defs>
<clipPath id="clip0_8964_315">
<rect x="20.1064" y="139.171" width="38" height="49" rx="2" transform="rotate(-121.946 20.1064 139.171)" fill="white"/>
</clipPath>
<clipPath id="clip1_8964_315">
<rect x="329.685" width="296" height="290" rx="2" transform="rotate(90 329.685 0)" fill="white"/>
</clipPath>
</defs>
</svg>
